<svg xmlns="http://www.w3.org/2000/svg" xmlns:xlink="http://www.w3.org/1999/xlink" width="664" height="536" viewBox="0 0 664 536">
  <defs>
    <clipPath id="clip-path">
      <rect id="Rectangle_154" data-name="Rectangle 154" width="664" height="536" transform="translate(1256 4333)" fill="#eec9af"/>
    </clipPath>
  </defs>
  <g id="Mask_Group_3" data-name="Mask Group 3" transform="translate(-1256 -4333)" clip-path="url(#clip-path)">
    <g id="PATTERN_3" data-name="PATTERN 3" transform="translate(-7220.469 -1825.755)">
      <path id="Path_5807" data-name="Path 5807" d="M2185.445,1170.505c-.978,5.288.2,10.709,2.141,15.706,3.268,8.4,8.224,15.894,13.581,23.158,1.785,2.422,3.615,4.815,5.431,7.177,15.046,33.607,46.13,38.795,77.431,34.3a78.749,78.749,0,0,0,15.242-3.754c3.1-18.595,10.249-37.168,24.535-51.454,0,1.429-7.143,4.286,0,1.429,10-4.286,20-7.143,30-5.715,15.715,4.286,18.572,20,11.429,32.859-1.429,2.857,0,7.143,1.429,10,11.429,12.858,28.572,11.429,41.43,2.857,15.715-12.857,22.858-32.858,19.1-51.285-1.011-8.908,1.386-11.517,3.616-14.25a69.447,69.447,0,0,0,6.71-7.705,44.415,44.415,0,0,0,6.583-12.256l.644-2.089c.186-.709.309-1.447.459-2.171a29.363,29.363,0,0,0,.5-4.462,25.115,25.115,0,0,0-1.485-8.991,26.485,26.485,0,0,0-11.658-13.843c-7.594-4.54-16.576-5.7-24.9-5.108-1.488.09-3.123-.037-4.579.128-4.983.566-10.268,2.87-15.054,4.338q-7.812,2.4-15.581,4.922c-10.358,3.367-20.8,15.268-31.027,18.978-22.523,8.167-44.147,9.2-66.078,18.62-7.7,3.307-16.3,5.677-24.491,4.016-11.41-2.314-20.413-10.427-31.976-12.888-7.8-1.66-16.493-1.144-23.273,3.016a22.467,22.467,0,0,0-8.924,10.344,20.145,20.145,0,0,0-1.238,4.122m12.348,1.055c6.259-5.751-.773-15.931,4.18-16.433,17.721-1.8,36.453,20.039,53.415,21.352,7.25.561,14.486-1.766,21.026-4.9,7.048-3.374,13.5-7.506,20.711-10.587,7.557-3.231,15.291-6.069,23.073-8.76,15.194-5.256,30.612-9.943,45.535-15.9,15.823-6.313,38.694-19.437,56.308-16.133,5.866,1.1,13.81.709,15.8,5.648,5.929,14.726-10.334,18.578-11.559,23.876-.9,3.9,7.131,7.914.661,15.993-2.09,2.61-4.044,5.48-2.769,13.138,5.351,22.492-1.792,49.636-24.65,61.065-10,4.285-27.144,2.857-31.43-8.572-2.857-11.429,10-18.572,4.286-30-5.714-10-15.715-17.144-27.144-15.715-31.43,1.428-38.573,34.287-50.269,57.711a84.814,84.814,0,0,1-13.954,2.22c-32.325,2.383-62.6-14.556-81.829-45.354-.678-1.406-2.067-6.707-2.485-7.815-1.337-3.542-2.692-17.362,1.095-20.841" transform="translate(6405.342 5369.002)" fill="#eec9af"/>
      <path id="Path_5808" data-name="Path 5808" d="M2243.58,1222.425c8.537,9.045,22.01,12.591,34.723,11.979,2.583-.124,5.854-1.287,9.332-2.978,3.472-2.047,7.151-4.622,10.728-14.186,6.87-18.743,21.157-34.458,39.73-40.173,30-8.571,47.143,15.715,67.145,31.43,7.142,5.715,12.857-15.715,11.429-25.715-2.858-12.858-11.429-28.573-25.716-27.144-28.573,2.857-60,1.429-82.042,24.3-4.362,3.892-7.336,5.117-10.416,6.013-8.293,1.375-18.174.96-25.481,2.426a65.661,65.661,0,0,1-13.44,1.537c-4.114-.023-8.342-.294-12.291,1.121a16.514,16.514,0,0,0-9.7,9.91c-2.79,7.6.64,15.8,6,21.48m-2.967-20.241c.092-5.6,8.829-2.986,14.384-2.933,10.986.1,21.565-2.055,31.83-5.356,3.423-1.1,6.809-2.327,10.166-3.639,29.67-31.761,72.528-33.189,109.674-16.046,10,4.286,10,18.572,5.713,28.573-1.428,2.857-5.713,8.572-10,4.286-14.286-20-34.286-37.145-60-31.43-27.144,5.714-38.573,28.572-51.506,49.061a62.432,62.432,0,0,1-12.619,3.15,42.2,42.2,0,0,1-12.72-.133c-9.252-1.587-24.241-7.3-26.6-16.354-.276-1.057,1.661-8.081,1.68-9.179" transform="translate(6405.342 5369.002)" fill="#eec9af"/>
      <path id="Path_5809" data-name="Path 5809" d="M2688.316,959.923c48.608-18.4,72.555-58.1,108.238-83.56,88.116-12.156,68.341-55.037,282.613-31.606,185.911,44.284-70.453,45.391-129.035,82.535-43.906,3.111-189.567,199.954-82.354,89.946,38.246-39.228,101.646-65.706,164.417-72.86-40.1-.138-77.849,11.263-111.161,21.709,9.392-49.267,157.182-62.658,232.662-69.622,154.762-24.12-79.057-66.838-45.951-83.467-30.243-17.749-156.745-19.58-253.492-1.1-37.09,8.043-66.72,20.527-88.138,42.7-117.9,177.412-270.446,18.992-252.387,280.789,10.389-19.168-15.164-133.757,64.909-156.312-50.033,16.145-62.036,118.389-43.252,156.312,1.935-107.869-28.748-129.585,152.931-175.464M2898.1,810.332l.012,0c.012,0,0,0-.012,0l-.171.082c-.338-.145.082-.083.171-.082m113.881.188c-35.66-7.138-70.149-3.139-104.892-.729-7.506-2.1,148.639-15.134,135.286,7.179,6.84,10.055,189.771,33.916,138.082,67.828-53.222,19.044-152.4,9.479-233.441,48.229,30.158-32.751,247-34.745,213.968-66.572-9.836-10.538,12.71,6.769,14.265,5.809,5.314-36.929-163.99-39.341-163.268-61.744" transform="translate(6405.342 5369.002)" fill="#eec9af"/>
      <path id="Path_5810" data-name="Path 5810" d="M2689.3,901.054c-110.253,75.831-213.742,9.948-205.161,205.612,2.674,60.981-17.613,86-29.411,86.46,18.4,0,52.846-22.648,44.582-74.885-3.156-19.945-16.714-53.049,12.713-113.912,22.318-59.32,108.211-45.329,177.257-92.1,39.778-26.743,52.095-67.429,97.2-89.455,55.584-24.515,128-33.905,211.619-32.927a85.721,85.721,0,0,0,12.7-.676c47.541-5.17,91.2,11.681,139.706,11.681-7.276-2.106-12.127-2.106-19.4-2.106,24.254-2.107,58.209,14.745,75.187-10.533-48.508,25.278-116.419,0-172.2-10.532-12.127-2.106-21.828,0-32.549,5.008a46.7,46.7,0,0,1-11.33,1.372c-118.36-1.175-237.478,19.707-300.906,116.994M3028.26,786.282c-12.641.136,1.322-.533,0,0m13.975.632c.3-.089.8-.283.835.049l-.835-.049m6.18-.119c.363.019,1.372-.072,1.343.222-.359-.019-1.373.067-1.343-.222" transform="translate(6405.342 5369.002)" fill="#eec9af"/>
      <path id="Path_5811" data-name="Path 5811" d="M2476.9,960.214c57.464-34.65,131.911-45.157,183.388-84.048,69.479-64.028,77.756-101.983,305.751-104.931q5.1-.066,10.357-.109c16.454-3.978,28.581-22.936,47.984-16.616,50.934,16.851,111.568,25.277,164.927,4.213-53.359,18.957-118.844,4.212-169.777-12.639-16.978-4.213-31.53,12.639-46.638,20.606q-4.251.074-8.5.169c-110.419,2.5-217.817,16.938-262.955,60.2-51.078,72.97-167.013,90.562-246.931,139.468-132.523,122.551,96.169,82.324-210.739,167.586-1.773.491-3.167.912-4.268,1.277h13.007c49.662-19.388,102.872-28.4,156.751-40.638,48.77-14.722-26.535-73.842,67.642-134.534" transform="translate(6405.342 5369.002)" fill="#eec9af"/>
      <path id="Path_5812" data-name="Path 5812" d="M2579.352,897.171c89.717-39.481,94.793-76.345,146.389-101.393-36.147,15.9-68.639,38.1-95.652,68.822-67,46.335-164.978,64.28-227.423,115.145-102.907,108,65.683,61.861-189.22,155.641h1.824c347.094-99.977-33.58-79.227,364.082-238.215" transform="translate(6405.342 5369.002)" fill="#eec9af"/>
      <path id="Path_5813" data-name="Path 5813" d="M2413.968,952.729C2475.855,921.12,2541.811,900.353,2600,865c27.75-16.892,43.321-33.9,62.132-49.369-20.088,14.636-44.383,33.379-79.756,57.714-65.53,36.991-141.146,57.409-202.316,97.83-116.948,82.571,82.689,71.7-163.139,140.561l-4.227,6.86c269.165-85.186,24.73-58.88,201.273-165.866" transform="translate(6405.342 5369.002)" fill="#eec9af"/>
      <path id="Path_5814" data-name="Path 5814" d="M2622.52,914.264c83.89-26.319,70.69-93.819,198.139-123.7q-14.316,2.8-28.512,6.133c-55.884,13.669-77.927,47.9-109.622,79.44-50.67,47.981-140.425,52.237-197.338,94.208-28.01,15.227-31.036,52.328-32.409,83.928,1.243-15.375,5.369-35.4,16.062-61.668,25.267-42.69,94.537-54.317,153.68-78.345" transform="translate(6405.342 5369.002)" fill="#eec9af"/>
      <path id="Path_5815" data-name="Path 5815" d="M2696.98,1468.165c-6.39-2.093-12.793-4.176-19.594-5.874a194.132,194.132,0,0,0-42.958-5.923,202.282,202.282,0,0,0-38.953,2.915c-8.255,1.416-16.549,2.713-24.816,4.1-8.7,1.455-17.371,2.993-26.081,4.413-9.8,1.6-19.648,3.039-29.437,4.668-12.254,2.04-24.645,3.023-37.032,4.059-11.279.943-22.548,1.376-33.825,1.9-12.837.593-25.61.757-38.4,1.006-8.158.159-16.3.2-24.459.364-8.82.179-17.656.479-26.476.661-8.16.168-16.309.252-24.462.366-14.561.206-29.123.571-43.747,2.153a165.3,165.3,0,0,0-27.751,5.251c-25.743,7.369-51.5,14.717-76.986,22.436-9.173,2.779-18.471,5.4-27.709,8.09-1.639.478-3.292.942-4.888,1.47-.993.328-.78.878-.7,1.371l-25.22,2.344c.2-.492.152-1.058,1.06-1.378.979-.346,2.007-.647,3.042-.926,24.749-6.672,48.836-14.205,72.854-21.833,14.933-4.743,30-9.32,44.9-14.1,16.291-5.227,33.381-7.7,51.092-8.434,16.362-.682,32.595-.589,48.859-.637,11.206-.034,22.468-.376,33.7-.559,10.134-.165,20.27-.347,30.391-.439q16.842-.153,33.741-.864c12.159-.5,24.312-1.116,36.472-2.1a273.419,273.419,0,0,0,28.326-3.525c5.6-.213,10.96-1.49,16.342-2.436,8.432-1.482,16.88-2.956,25.26-4.556,15.728-3,31.724-5.167,47.458-8.115,2.8-.525,5.594-1.076,8.384-1.63.094-.018.119-.195.178-.3-.283-.135-.592-.414-.846-.384-3.511.421-7.071.734-10.508,1.365-9.913,1.822-19.943,3.3-29.741,5.491-6.743,1.505-13.816,2.347-20.684,3.633-12.717,2.381-25.7,3.827-38.473,5.991-9.734.823-19.465,1.706-29.2,2.456q-25.92,2-51.723,2.1c-21.565.054-43.115.03-64.721.285-12.329.146-24.578-.285-36.82-.615-16.866-.454-33.8-.4-50.886.707a151.687,151.687,0,0,0-27.359,4.446c-10.95,2.764-21.241,6.368-31.713,9.73-19.955,6.406-39.62,13.157-59.869,19.211-19.241,5.752-38.742,11.093-59.056,15.11a527.152,527.152,0,0,1-67.777,8.919,193.812,193.812,0,0,1-28.279-.14,67.939,67.939,0,0,1-9.933-1.479,11.033,11.033,0,0,1-4.068-1.644c-1.065-.8-1.062-1.887-.016-2.828a13.567,13.567,0,0,1,4.01-2.2c8.416-3.35,17.388-6.072,26.37-8.781a4.077,4.077,0,0,1,2.5-.082c.618.791-.58,1.155-1.446,1.489-3.451,1.336-6.978,2.6-10.434,3.931-2.11.813-4.244,1.63-6.172,2.579a16.647,16.647,0,0,0-3.593,2.4c-1.2,1.058-.668,2.206,1.117,2.929a27.76,27.76,0,0,0,7.05,1.576,118.758,118.758,0,0,0,16.245.681c9.913-.2,19.847-.808,29.762-1.954.862-.1,1.7-.341,2.553-.516l3.346-.472a120.767,120.767,0,0,0,16.392-2.148q1.082-.176,2.161-.348a166.436,166.436,0,0,0,17.68-3l3.554-.785a10.933,10.933,0,0,0,4.109-.819l2.458-.542c1.246-.142,2.867.067,2.968-1.148a9.991,9.991,0,0,0,3.44-.451,5.707,5.707,0,0,0,2.816-.485,14.424,14.424,0,0,0,4.172-.94,1.249,1.249,0,0,0,1.064-.312,14.251,14.251,0,0,0,4.166-.976,23.073,23.073,0,0,0,5.169-1.308l3.972-1.094a199.745,199.745,0,0,0,19.362-5.646,12.461,12.461,0,0,0,4.019-1.079,85.9,85.9,0,0,0,10.479-3.195,31.787,31.787,0,0,0,6.467-2.051c4.879-1.489,9.8-2.927,14.629-4.475q23.283-7.46,46.507-14.992a171.131,171.131,0,0,1,41.661-8.251c11.3-.76,22.565-1.131,33.775-1.005a35.378,35.378,0,0,0,7.9-.444,3.125,3.125,0,0,0,2.647.427l1.286-.024c1.514.127,3.023.449,4.558-.251,1.38.792,3.207.522,4.98.383a1.662,1.662,0,0,0,1.727-.251c1.384.783,3.2.513,4.965.366a1.727,1.727,0,0,0,1.744-.234c1.385.774,3.2.505,4.958.363a3.739,3.739,0,0,0,3.052-.32c.89.734,2.258.589,3.632.434a1.918,1.918,0,0,0,1.784-.222c1.855.851,4.127.44,6.313.292a3.578,3.578,0,0,0,3.029-.377c1.36.854,3.2.59,5.006.4a1.592,1.592,0,0,0,1.715-.293c1.844.888,4.118.42,6.293.264a3.884,3.884,0,0,0,3.071-.378c1.833.918,4.118.421,6.293.27a1.792,1.792,0,0,0,1.741-.261c1.855.839,4.1.381,6.25.223a4.108,4.108,0,0,0,3.1-.32c1.377.791,3.176.483,4.921.319a4.151,4.151,0,0,0,3.113-.309c1.378.786,3.17.478,4.911.307a4.566,4.566,0,0,0,3.133-.25c2.334.593,4.659,1,6.891-.541l2.8.4c1.2.883,2.942.492,4.576.347l6.136-.424.185-.03c1.88.641,2.167.61,3.717-.4l.426.052c.652.756,1.919.889,3.276.807,7.053-.427,14.077-.1,21.143-1.05a14.582,14.582,0,0,1,3.871,0,17.639,17.639,0,0,0,5.232-.365,100.191,100.191,0,0,0,11.927-.938c10.4-.607,20.714-1.769,31.013-3.286,12.023-1.772,23.917-3.9,35.851-5.928,10.849-1.84,21.674-3.751,32.523-5.591s21.7-3.693,32.58-5.423a142.3,142.3,0,0,1,17.853-1.6c3.748-.118,7.5-.315,11.256-.477,3.909.114,7.68.94,12.427.065-3.04-1.3-6.169-1.414-9.363-1.434a44.371,44.371,0,0,0-9.547-.686c-8.536-.106-17.073.013-25.659,1.455q-21.45,3.6-42.928,7.118c-15.617,2.575-31.251,5.1-46.857,7.7-13.039,2.177-26.178,3.776-39.409,4.936l-6.379.33c-6.765.279-13.533.6-20.292.825s-13.522.333-20.285.516c-1.518.041-3.053.132-4.57.288-.976.1-1.444.56-1.486,1.118-.286-.594-.925-.78-2-.464-2.6-1.329-4.4-1.188-6.073.477-.215-.64-.894-.769-1.949-.486-2.061-1.215-3.426-1.1-4.758.383.046-.324-.108-.548-.765-.519-1.061-.9-2.708-.91-4.485-.7-1.023.123-1.424.527-1.448,1.075a13.118,13.118,0,0,0-7.484-.593,2.667,2.667,0,0,0-2.294-.468,7.57,7.57,0,0,0-4.455.325c-.919-.675-2.258-.574-3.621-.429a14.719,14.719,0,0,0-5.229-.073l-1.4-.016a22.08,22.08,0,0,0-6.616-.023,11.874,11.874,0,0,0-4.984-.143c-1.016.15-1.42.549-1.436,1.1-.231-.651-.908-.794-1.992-.474-2.716-1.3-4.43-1.164-6.045.477l-.9-.518c-.226-.508-.748-.842-1.712-.878q-17.788-.658-35.584-1.29c-1.435-.049-3.213-.1-3.419,1.248.037-.321.066-.64-.686-.664-.609-.8-1.835-.865-3.224-.7-1.024.126-1.486.518-1.483,1.085-.006-.006.319-.162.319-.162l-.289-.141-.365-.141c-.394-.263-.71-.722-1.2-.755-2.772-.189-5.572-.328-8.389-.375-1.156-.019-2.119.382-2.143,1.185-.006-.007.3-.17.3-.17l-.293-.135-.362-.141c-1.207-1.416-3.376-1.117-5.537-.618-.4.091-.552.625-.819.954l.333-.181-.314-.151s-.39-.149-.378-.148c-.472-.824-1.706-.97-3.075-.973-4.836-.009-9.663-.071-14.511,0-8.383.12-16.774.39-25.2,1.227a218.434,218.434,0,0,0-33.694,6.074c-11.072,2.89-22.045,5.958-33.507,8.169-3.444.665-6.929,1.292-10.435,1.728a37.4,37.4,0,0,1-6.592.164c-3.211-.18-4.765-1.609-3.822-3.5a13.2,13.2,0,0,1,2.666-3.609c2.131-2.045,4.5-4.024,6.889-5.985a176.847,176.847,0,0,1,19.122-13.255c9.826-6.066,21.744-9.882,34.987-12.388,14.456-2.735,29-3.439,43.613-3.674,22.964-.37,45.581.664,68.308,1.242,14.664.373,29.423.188,44.179.051,10.57-.1,21.138-.176,31.714-.317a514.418,514.418,0,0,0,55.7-3.356,169.965,169.965,0,0,0,27.676-5.488,48.716,48.716,0,0,0,9.212-3.544c3.662-1.98,3.918-4.109.767-5.975a15.205,15.205,0,0,0-2.979-1.3c-3.289-1.071-6.517-2.22-9.989-3.1-20.164-5.11-39.192-11.272-57.857-17.784-10.222-3.566-20.563-7.032-30.807-10.58a187.189,187.189,0,0,1-43.713-21.365c-5.3-3.578-9.793-7.484-12.29-12.105-1.323-2.448-2.332-4.937-1.928-7.669.845-5.723,5.5-10.368,13.671-14.04a120.077,120.077,0,0,1,17.9-6.03c3.53-.949,7.011-1.973,10.492-2.993a1.1,1.1,0,0,0,.595-.615c.123-.268-.216-.419-.79-.364-3.753.355-7.522.632-11.253,1.1a278.871,278.871,0,0,0-28.639,4.94c-1.27.3-2.5.658-3.764.973-17.466,4.381-26.3,14.247-24.534,24.045.9,5.023,3.694,9.594,7.5,13.94,3.98,4.548,9.126,8.635,14.03,12.819,4.2,3.586,8.427,7.166,12.478,10.815a27.259,27.259,0,0,1,6.184,7.934c1.534,3.022-.654,7.062-7.231,9.245a58.067,58.067,0,0,1-10.147,2.357,146.478,146.478,0,0,1-33.565.912c-1.065-.1-2.113-.251-3.122-.441-4.966-.934-6.313-2.191-5.429-5.279.944-3.3,1.873-6.594.638-9.791a32.928,32.928,0,0,0-4.8-8.723c-3.915-4.962-7.952-9.887-12.044-14.794-2.048-2.455-4.1-4.909-5.969-7.412a43.32,43.32,0,0,0-6.528-7.629c-12.64-12.23-31.212-19.373-42.641-35.088,34.287,10,72.859,7.144,103.314-12.25,5.682-2.682,10.57-3.358,15.458-4.041,33.5-2.755,66.976-5.853,100.471-8.637q29.164-2.424,58.41-3.55c13.487-.5,26.984-1.1,40.42-1.22,26.718-.237,53.094.609,78.568,4a343.048,343.048,0,0,1,39.1,7.869c12.786,3.23,25.68,6.322,39.492,8.264a44.63,44.63,0,0,0,9.557.836,1.885,1.885,0,0,0,1.067-.429.526.526,0,0,0-.2-.686,7.87,7.87,0,0,0-1.818-.974c-2.13-.766-4.253-1.549-6.5-2.2q-22.547-6.573-45.145-13.1c-18.8-5.469-39.267-8.477-60.617-10.249-22.122-1.837-44.586-2.547-67.24-2.571-14.063-.015-28.2.331-42.315.6-13.456.259-26.918.546-40.392.981-15.467.5-30.948,1.149-46.425,1.777-14.93.607-29.844,1.126-44.717,1.372q-7.437.123-14.858.149c-31.341,14.057-67.057,44.058-98.487,19.771-25.715-20-51.43-38.573-75.717-61.431-17.144-18.572-27.144-42.859-25.715-68.574-5.715,44.288,15.714,87.146,27.318,128.013a35.28,35.28,0,0,1-5.124,7.695c-4.122,5.187-3.2,10.31-1.019,15.246,2.97,6.734,8.733,12.619,15.351,18.2a155.1,155.1,0,0,0,17.945,12.453,107.505,107.505,0,0,1,23.138,18.758,38.428,38.428,0,0,1,6.581,9.852c2.616,5.752.768,11.277-6.233,16.324-7.621,5.493-17.267,9.632-27.758,13.1-.518-.2-1.09-.509-.479-.854,1.811-1.025,3.68-2.026,5.638-2.956,4.306-2.044,8.625-4.064,12.6-6.339,11.405-6.527,13.783-13.774,9.532-21.587-3.012-5.535-7.992-10.415-13.585-15.072a118.422,118.422,0,0,0-15.532-10.806c-12.427-7.347-22.912-15.527-30.52-24.957a36.36,36.36,0,0,1-6.316-11.113c-1.63-4.8-.479-9.511,3.62-14.147,1.77-2,3.592-3.991,5.424-5.978a20.8,20.8,0,0,0-.311-12.13c-8.843-42.269-35.987-87.985-14.558-130.843-21.429,55.716,30,101.432,77.146,122.861,11.429,5.715,11.429,22.859,24.287,27.144,32.858,11.429,62.859-7.143,88.662-25.375,3.369-.286,6.74-.358,10.114-.376q10.125-.054,20.293-.3c17.453-.427,34.923-1.144,52.4-1.828,14.595-.571,29.177-.946,43.761-1.374,12.595-.37,25.2-.782,37.773-1.019,35.354-.667,70.462-.431,104.729,2.9a321.432,321.432,0,0,1,54.326,9.583c8.561,2.363,17.158,4.688,25.685,7.086,9.3,2.615,19.142,4.6,28.891,6.7a147.9,147.9,0,0,1,15.54,4.1,39.389,39.389,0,0,1,10.134,4.769,10.564,10.564,0,0,1,3.139,3.112c1.071,1.823-.391,3.326-3.757,3.8a34.525,34.525,0,0,1-7.243.2,98.354,98.354,0,0,1-17.164-2.908c-21.372-5.3-43.331-9.928-64.459-15.509-17.621-4.654-36.724-7.027-56.526-8.217q-32.176-1.933-65.029-1.088c-20.773.558-41.552,1.5-62.373,2.721-32.8,1.918-65.532,4.782-98.266,7.794q-12.609,1.161-25.217,2.338a126.782,126.782,0,0,0-12.929,1.939c-26.765,19.53-61.052,20.958-93.91,18.1,11.429,12.858,25.715,20,38.457,29.129a59.2,59.2,0,0,0,7.3,9.851c8.983,9.983,19.246,19.5,29.207,29.124a21.585,21.585,0,0,0,7.017,4.548c4.25,1.727,9.082,1.947,14.347.851,4.051-.843,6.359-2.6,6.662-5.015a8.313,8.313,0,0,0-1.8-5.8,57.831,57.831,0,0,0-7.185-8.055c-5.1-4.982-10.607-9.807-14.885-15.094a37.906,37.906,0,0,1-6.54-11.064c-2.721-7.738.328-15.024,9.8-21.716,4.374-3.091,10.041-5.155,16.065-6.876a161.493,161.493,0,0,1,17.238-3.855c14.576-2.481,29.211-4.762,43.967-6.606,12.323-1.54,24.608-3.3,36.949-4.72q24.157-2.784,48.439-4.427c12.385-.823,24.776-1.281,37.159-1.656,11.936-.36,23.883-.808,35.751-.744,20.47.11,40.707.906,60.323,3.422a306.217,306.217,0,0,1,32,6.284c10.382,2.457,20.753,4.927,31.181,7.332,5.32,1.227,10.613,2.483,15.516,4.127a144.633,144.633,0,0,0,29.3,6.052c2.957.341,5.952.627,8.845,1.07a77.491,77.491,0,0,1,7.851,1.526c12.216,3.208,17.33,9.017,16.581,16.942-.54,5.706-2.607,11.39-3.92,17.084-.2.885-.55,1.772-.056,2.607a1.251,1.251,0,0,0,1.453-.41c7.436-10.165,15.876-20.144,22.265-30.5a45.259,45.259,0,0,0,6.783-18.842c.762-6.791-1.835-12.894-7.007-18.548-4.946-5.406-11.715-9.976-19.873-13.776-11.443-5.329-20.584-11.825-29.725-18.4-18.253-13.119-37.419-25.779-59.455-36.879-7.53-3.793-14.99-7.635-22.724-11.293a311.986,311.986,0,0,1-36.183-20.352,163.4,163.4,0,0,0-26.791-14.022,66.648,66.648,0,0,1-14.36-7.976c-5.893-4.354-12.164-8.536-17.318-13.226-.446-.406-.984-.776-1.483-1.161a2.834,2.834,0,0,0-2.2-.552c-1.338.217-1.448.923-1.554,1.557a13.455,13.455,0,0,0,1.117,7.814,37.989,37.989,0,0,0,14.824,17.46,90.082,90.082,0,0,1,13.133,10.528,108.145,108.145,0,0,0,23.951,17.018c3.7,1.933,7.538,3.8,11.587,5.493,7.1,2.971,14.468,5.741,21.606,8.683,6.288,2.592,12.431,5.293,18.595,7.976.971.423,2.111.827,2.325,1.621.039.148-.532.546-.634.531-1.649-.246-3.348-.452-4.879-.838-10.287-2.595-21.09-4.525-31.878-6.473-6.922-1.249-13.949-2.349-21.211-3.043-2.192-.209-4.482-.861-6.737.393.49,1.352,2.611,1.8,4.3,2.436,7.538,2.836,15.144,5.617,22.75,8.4a71.155,71.155,0,0,1,11,5.325,12.011,12.011,0,0,1,3.884,3.253c.921,1.283.359,2.471-1.731,3.4a30.118,30.118,0,0,1-6.141,1.756,136.928,136.928,0,0,1-23.753,2.545c-19.88.567-39.741.951-59.622,1.527-15.023.436-30.063,1.035-45.1,1.6-18.353.687-36.71,1.434-55.062,2.111-17.688.653-35.382,1.347-53.055,1.848q-22.224.63-44.254.4c-4.74.48-9.068,2.735-13.218,6.221-17.75,12.071-37.751,33.5-59.18,22.072-5.715-4.286-7.143-14.287-14.287-17.144-41.43-12.857-88.574-27.144-105.718-72.86-11.429-30,7.143-64.288,38.573-71.431-47.145-2.857-55.716,57.145-45.716,92.861-4.286-17.144-4.286-32.859-1.429-50,1.429-24.287,27.144-52.859,54.288-42.859-18.572,1.429-37.144,12.858-44.287,31.43-20,62.859,50,102.861,105.718,108.575,10,1.429,15.715,15.715,27.144,17.144,20,1.428,32.859-17.144,47.009-27.762,2.962-2.623,6.673-3.111,10.579-3.127,7.81-.034,15.645-.187,23.49-.392,23.227-.606,46.463-2.335,69.708-3.906,17.064-1.154,34.1-2.567,51.11-4.348a220.285,220.285,0,0,0,24.206-3.784,76.987,76.987,0,0,0,7.431-2.075,18.974,18.974,0,0,0,11-8.391c.989-1.593.323-3-1.35-4.2a24.549,24.549,0,0,0-6.116-3.058c-7.333-2.584-14.641-5.19-21.994-7.757a131.012,131.012,0,0,1-13.831-5.617,41.333,41.333,0,0,1-4.908-2.762c-3.348-2.234-4.307-4.918-2.736-8.016,2.12-4.181,5.741-8,10.433-11.535,3.24-2.439,6.623-4.825,10.081-7.171,6.856-4.649,12.153-9.736,15.654-15.348,1.765-2.829,3.455-5.668,5.229-8.495a126.615,126.615,0,0,1,28.172-32.067c13.539-10.928,30.454-19.449,52.024-24.5a199.385,199.385,0,0,1,36.69-5.075,298.292,298.292,0,0,1,62.473,4.122,455.363,455.363,0,0,1,74.6,19.058,290.754,290.754,0,0,1,43.705,18.7c25.934,14.067,45.791,30.706,59.755,49.85a183.911,183.911,0,0,1,13.78,21.589,104.348,104.348,0,0,0,8.866,14.075,32.082,32.082,0,0,1,5.463,11.308,18.852,18.852,0,0,1-1.054,12.447c-2.218,5.256-7.769,6.483-14.245,3.247-2.043-1.02-3.948-2.136-5.787-3.277-7.082-4.4-14.114-8.819-21.16-13.234-.846-.53-1.631-1.093-2.5-1.611-6.764-4.039-10.126-9.047-10.759-14.852-.272-2.5-.706-4.98-1.009-7.475-1.119-9.23-5.5-17.761-12.793-25.611-13.27-14.286-30.317-26.781-51.947-37.073-25.127-11.957-53.172-21.313-84.516-27.715a279.456,279.456,0,0,0-49.854-5.813,158.692,158.692,0,0,0-37.559,3.107c-9.58,2.089-18.165,5.124-24.6,10.011a18.343,18.343,0,0,0-3.9,3.744,3.655,3.655,0,0,0-.793,2.624c.109.848,1.339,1.372,2.706,1.009,1.866-.5,3.682-1.079,5.481-1.67a124.354,124.354,0,0,1,16.256-4.25,127.624,127.624,0,0,1,19.812-2,257.533,257.533,0,0,1,46.349,3.291,350.4,350.4,0,0,1,66.468,16.962c18.708,6.76,35.791,14.632,50.576,24.015a105.1,105.1,0,0,1,18.409,14.534,32.941,32.941,0,0,1,8.748,14.438c1.263,4.593.148,9.29-2.2,13.951-.939,1.868-2.22,3.7-3.337,5.549a17.794,17.794,0,0,0-2.444,5.244c-1.091,5.158,1.363,9.418,7.93,12.554,4.011,1.915,8.144,3.761,12.422,5.487,9.327,3.762,17.583,8.137,23.8,13.646,5.855,5.192,13.427,9.454,21.079,13.708,8.01,4.453,14.242,9.7,18.662,15.683,3.261,4.412,5.109,9.028,3.719,14.156-.648,2.394-.575,4.805-1.089,7.206a9.894,9.894,0,0,1-4.494,6.853c-.469-.776-1.52-1.408-.85-2.438.464-.713.292-1.52.69-2.25,2.138-3.924,1.764-7.762,1.4-11.632-.168-1.8-1.381-3.331-2.215-4.945-.909-1.758-3.843-2.128-6.821-1.125-1.98.666-3.8,1.544-6.175,1.537-1.173-6.3-6.25-11.33-13.379-15.685a51.339,51.339,0,0,0-5.848-3.236c-11.686-5.229-22.932-10.774-35.44-15.415a90.079,90.079,0,0,0-18.865-4.241c-2.918-.4-5.843-.829-8.85-1.028-12.1-.8-18.6-5.135-22.655-11.141-4.732-7-3.658-14.329.073-21.847,2-4.022,5.2-7.8,8.506-11.576a33.546,33.546,0,0,0,3.858-5.038c4.37-7.591,2.526-14.548-3.038-21.061-3.736-4.374-8.928-8.125-14.8-11.54-24.988-14.528-54.728-25.029-89.635-31.1a214.246,214.246,0,0,0-36.978-3.392c-.863,0-1.747.114-2.621.175a79.659,79.659,0,0,0-18.9,2.18c-12.58,3.148-18.454,9.334-15.63,16.495,1.968,4.99,6.215,9.169,12.108,12.771l-.077-.019a24.016,24.016,0,0,0,8.64,6.055l-.089-.016a4.013,4.013,0,0,0,2.952,2.023l-.087-.016c.653,1.323,2.4,2.208,3.668,3.286,2.793,2.379,5.164,4.89,6.42,7.754.26.6.43,1.224-.675,1.722a3.925,3.925,0,0,1-3.012-.091c-2.149-.723-4.186-1.544-6.289-2.308-2.786-1.013-5.1-2.427-8.476-2.939l.052.033c-2.888-1.771-6.814-2.726-10.464-3.861a78.608,78.608,0,0,1-16.365-7.111c-2.763-1.609-5.81-3.061-8.832-4.517a14.49,14.49,0,0,0-3.316-.967c-.742-.147-1.243.306-1.2.672a2.648,2.648,0,0,0,.659,1.383,21.222,21.222,0,0,0,8.912,5.889,144.226,144.226,0,0,1,20.921,9.56,4.932,4.932,0,0,0,3.049,1.9l1.388.876c9.029,6.89,18.251,13.678,29.086,19.668,14.71,8.133,29.789,16.052,43.894,24.536,18.573,11.172,35.993,22.933,52.512,35.143a117.6,117.6,0,0,0,20.782,12.377,114.662,114.662,0,0,1,18.583,10.62,51.249,51.249,0,0,1,8.4,7.6c5.807,6.469,6.591,13.593,4.48,21.108-1.928,6.864-5.606,13.535-10.278,20.1-4.146,5.822-8.431,11.62-12.6,17.438-4.03,5.619-6.643,11.351-7.127,17.237-.491,5.973,1.221,11.537,7.7,15.947a29.039,29.039,0,0,1,10.378,12.7,23.816,23.816,0,0,1,1.4,3.6,18.848,18.848,0,0,1,.715,4.085c.091,1.965-.577,3.81-4.256,4.954-3.961,1.231-7.746,1.505-11.18.055a18.217,18.217,0,0,1-4.937-3.223,35.764,35.764,0,0,1-6.113-7.141,40.383,40.383,0,0,1-7.3-20.557,55.087,55.087,0,0,1,3.156-21.592c1.133-3.276,2.065-6.563,3.121-9.843a22.092,22.092,0,0,0,.638-8.7c-.512-6.648-6.418-10.961-16.552-13.386-2.914-.7-6.075-1.126-9.175-1.6-8.487-1.289-16.994-2.562-24.79-4.752-4.725-1.327-9.221-2.884-13.919-4.241-3.363-.971-6.546-2.183-10.534-2.438l-.091.037a86.185,86.185,0,0,0-16.39-3.781l-.044.039a15.427,15.427,0,0,0-6.822-1.665l-.031.04a7.673,7.673,0,0,0-3.132-1.133c-23.329-5.874-48.261-8.775-74.7-9.032-15.166-.147-30.346.218-45.644,1.149-10.637.647-21.26,1.355-31.846,2.514-19.848,2.174-39.65,4.544-59.169,8.2-13.408,2.509-26.768,5.074-39.747,8.462a124.943,124.943,0,0,0-18.583,6.125c-6.1,2.679-10.637,5.943-12.749,10.145-1.933,3.844-.432,7.262,1.981,10.55,3.584,4.88,9.444,8.78,15.673,12.5a157.527,157.527,0,0,0,30.147,13.418c13.558,4.6,26.9,9.382,40.947,13.55,8.611,2.555,17.361,4.964,26.468,6.992a220.051,220.051,0,0,0,24.159,3.723c14.42,1.549,29.142,2.4,43.721,3.589,9.219.75,18.441,1.5,27.4,2.783a62.784,62.784,0,0,1,9.618,1.93,19.791,19.791,0,0,1,3.574,1.431c1.5.825,1.533,1.945.4,3.113a15.632,15.632,0,0,1-5.967,3.3c-3.346,1.178-6.774,2.3-10.29,3.261-14.748,4.048-30.007,7.136-45.247,10.251q-19.969,4.082-40.288,7.233c-2.838.437-5.7.8-8.569,1.115-16.573,1.834-33.139,2.814-49.745,3.313-16.8.505-33.459.291-50.19.456-11.449.113-22.9.264-34.356.391-7.707.086-15.416.182-23.117.229a116.545,116.545,0,0,0-13.254.916c-.672.081-1.257.356-1.237.785a.742.742,0,0,0,.542.594c1.953.461,3.9.94,5.945,1.281a265.826,265.826,0,0,0,28.555,3.125c29.211,1.674,58.547,3.006,88.22,3.1a518.841,518.841,0,0,0,68.9-3.988c10.538-1.376,21.011-3.081,31.493-4.706,10.042-1.558,20.064-3.188,30.085-4.818,11.983-1.948,23.938-3.988,35.936-5.885,20.17-3.189,39.693-3.522,58.035.949,8.571,2.089,17.012,4.344,26.217,5.644,3.532.5,7.118.96,10.774,1.189,5.9.37,9.254-.825,11.917-4.027,2.711-3.26,4.125-6.63,4.16-10.09.05-4.918.159-9.842-1.756-14.562-.134-.33-.2-.845.738-.9a2.7,2.7,0,0,1,1.545.412c7.388,6.031,13.5,12.488,15.689,20.065a15.176,15.176,0,0,0,5.333,7.7,154.536,154.536,0,0,0,18.029,12.879c1.86,1.114,4,2.123,4.778,3.732l-58.4,5.43c.512-1.3-1.126-1.738-2.574-2.212M2386.3,1376.386c-.065-.084-.09-.216-.2-.239a2.914,2.914,0,0,0-.607.013l-.334-.559c-1.011.538.2.363.423.506l.72.279m27.991,11.794a15.849,15.849,0,0,0,9.436,3.355c.334.686,1.339.984,2.3,1.308.4.078.78.174,1.189.231.909.124,1.875,0,2.223-.536s-.353-.9-1.139-1.108c-.37-.1-.8-.136-1.2-.2l-1.176-.281a51.848,51.848,0,0,0-10.911-3.363,4.706,4.706,0,0,0-2.781-.456l-.92-.181.567.428a3.551,3.551,0,0,0,2.413.8m-34.368-16.175c-3.551-3.089-7.773-5.894-10.762-9.222a26.913,26.913,0,0,1-4.339-6.005c-3.362-6.9.735-12.863,10.095-18.134a75.543,75.543,0,0,1,15.261-6.157c6.3-1.887,12.691-3.659,19.042-5.48a10.235,10.235,0,0,0,5.7-1.851,16.632,16.632,0,0,0-6.063.434c-10.582,1.862-21.139,3.773-31.27,6.6a93.186,93.186,0,0,0-10.7,3.6c-10.127,4.2-15.651,11.3-12.079,18.332a26.718,26.718,0,0,0,7.226,8.776,73.314,73.314,0,0,0,16.719,10.026,4.919,4.919,0,0,0,3.46,1.511c.338.2.745.552,1.237.216s-.087-.529-.62-.626a4.318,4.318,0,0,0-2.907-2.015m440.314-199.127c6.78,6.353,13.566,12.7,19.487,19.373,6.23,7.024,10.97,14.425,13.644,22.325a65.858,65.858,0,0,1,2.641,11.815c.835,5.813,4.639,10.643,11.327,14.673a127.255,127.255,0,0,0,15.99,8.034,21.71,21.71,0,0,0,4.387,1.387c3.11.593,5.63-.287,6.757-2.206a7.82,7.82,0,0,0,1-4.153,16.6,16.6,0,0,0-2.55-8.371c-3.734-6.361-6.085-13.005-9.23-19.485-6.914-14.252-17.45-27.384-31.421-39.453a205.1,205.1,0,0,0-40.045-26.537,166.843,166.843,0,0,0-25.9-10.722,11.875,11.875,0,0,0-4.05-.967,2.052,2.052,0,0,0-.581.118c-.529.169-.591.377-.326.651,1.041,1.081,2.821,1.741,4.376,2.524,9.566,4.818,19.005,9.709,27.4,15.211a145.551,145.551,0,0,1,22.806,18.009,18.6,18.6,0,0,1,3.873,4.911,2.386,2.386,0,0,1-2.736-.4c-3.651-2.3-7.134-4.687-10.851-6.949-2.98-1.813-5.554-3.894-9.6-5.058l-1.358-.618c-.675.549-.365.9.494,1.145.811,1.82,2.837,3.219,4.467,4.747m-309.351,286.54c-7.417.5-14.215.879-20.951,1.881-12.6.59-25.213,1.247-37.811,1.748-11.279.448-22.508.449-33.626.068-24.846-.85-49.795-1.363-74.489-2.714-16.7-.913-33.03-2.643-49.437-4.2q-10.868-1.035-21.63-2.288c-2.724-.317-5.322-.89-7.912-1.429-.956-.2-1.909-.574-1.677-1.342.178-.593,1.095-.812,1.916-1.044a44.885,44.885,0,0,1,7.129-1.274,199.772,199.772,0,0,1,23.855-1.17c17.341.122,34.641.438,51.985.546,12.075.075,24.194-.052,36.3-.11,13.425-.065,26.837-.04,40.285-.258,19.875-.322,39.784-1.185,59.669-3.7,10.568-1.335,20.98-3.219,31.31-5.281,11.4-2.275,22.765-4.653,33.829-7.585,4.374-1.159,8.682-2.431,12.944-3.746a26.666,26.666,0,0,0,7.08-3.2c2.047-1.394,2.022-2.913.021-4.079a23.681,23.681,0,0,0-7.139-2.247c-6.662-1.319-13.692-2.015-20.693-2.75-8.909-.934-17.816-1.88-26.778-2.705a277.74,277.74,0,0,1-57.431-11.751c-7.589-2.354-15.146-4.737-22.733-7.093-2.871-.891-5.149-1.013-5.172-.36-.045,1.221,1.826,1.5,3.186,2a465.3,465.3,0,0,0,54.694,16.544c6.486,1.517,13.246,2.652,20.045,3.749q8.641,1.395,17.117,3.04a28.213,28.213,0,0,1,8.221,2.625c2.687,1.506,2.689,3.222-.113,5.023a44.814,44.814,0,0,1-10.6,4.482c-7.506,2.367-15.338,4.215-23.267,5.879-18.617,3.907-37.63,5.407-56.7,6.435-21.063,1.135-41.855.589-62.741.616-9.014.011-18.07.225-27.069.168-16.692-.1-33.226-.812-49.786-1.409-17.247-.623-34.587-.672-52.119.433-13.417.847-26.451,2.745-38.728,6.841-11.64,3.884-20.119,9.386-26.24,16.132a5.533,5.533,0,0,0-1.666,2.95c-.131,1.385,1.113,2.471,3.432,2.643a34.305,34.305,0,0,0,4.6-.081,116.44,116.44,0,0,0,16.947-2.782,278.979,278.979,0,0,1,45.345-5.91c11.948-.554,23.835-.51,35.612-.079,19.612.719,39.14,1.732,58.8,2.271,19.442.533,39,.631,58.51.924,18.661.281,37.441-.211,56.233-.917a261.954,261.954,0,0,0,29.143-2.656c6.124-.226,11.85-1.708,18.307-2.829m-16.515-240.536a73.954,73.954,0,0,0,8.551,3.629,191.586,191.586,0,0,0,24.168,6.328c.992.211,2.034.368,3.079.5,4.264.555,4.576.388,4.524-2.351-.041-2.144,1.086-3.115,4.735-3.637,2.391-.342,4.851-.434,7.28-.588,1.321-.084,2.644-.01,3.964-.1,1.936-.134,2.867-1.1,1.849-1.9a22.984,22.984,0,0,0-2.437-1.633c-1.886-1.116-3.836-2.2-5.735-3.306a23.036,23.036,0,0,1-10.314-11.416c-2.687-6.579-2.212-13.331-1.089-20.2a54.858,54.858,0,0,0,.467-15.861,5.64,5.64,0,0,0-.465-1.833,1.487,1.487,0,0,0-1.7-.849,3.589,3.589,0,0,0-1.678.57,18.924,18.924,0,0,0-2.644,2.771c-2.018,2.781-4.079,5.563-5.8,8.39a59.554,59.554,0,0,1-14.982,15.978q-4.6,3.516-8.894,7.147a25.546,25.546,0,0,0-7.208,8.893,8.264,8.264,0,0,0-.651,3.777c.074,2.421,2.125,4.238,4.982,5.685m72.535,32.069c.444,1.995,2.417,3.344,5.844,3.81,2.063.281,4.222.416,6.367.538,6.13.35,12.273-.391,18.408-1.167.437-.056.873-.132,1.3-.226,4.63-1.021,5.535-2.722,2.274-4.525a61.952,61.952,0,0,0-12.51-4.712,155.393,155.393,0,0,0-17.725-3.889c-1.017-.169-2.065-.307-3.13-.384-2.234-.161-3.331.492-3.008,2.208,1.423,2.393,1.529,5.409,2.183,8.347" transform="translate(6405.342 5369.002)" fill="#eec9af"/>
    </g>
  </g>
</svg>
