<svg id="testimony_left" xmlns="http://www.w3.org/2000/svg" xmlns:xlink="http://www.w3.org/1999/xlink" width="323.213" height="264.788" viewBox="0 0 323.213 264.788">
  <defs>
    <clipPath id="clip-path">
      <rect id="Rectangle_261" data-name="Rectangle 261" width="323.213" height="264.788" fill="none"/>
    </clipPath>
  </defs>
  <g id="Group_10423" data-name="Group 10423" clip-path="url(#clip-path)">
    <path id="Path_5915" data-name="Path 5915" d="M238.173,123.007c27.577-15.957-49.714,55.712-57.966,71.555-30.54,39.356-47.069,85.457-173.355,63.915,124.308,21.927,135.6-15.437,188.636-78.719,22.891-33.536,61.038-54.412,78.33-77.356a18.677,18.677,0,0,1,4.28-3.211c26.534-14.112,41.647-32.154,44.6-50.848a37.3,37.3,0,0,0-.307-13.966c-1.716-3.972-3.255-8.367-6.071-12.374s-6.906-7.62-13.74-10.029A459.09,459.09,0,0,1,250.772,0H233.58c20.927,5.412,42.069,10.133,59.394,15.1a49.547,49.547,0,0,1,14.167,8.587A28.151,28.151,0,0,1,315.3,35.9a41.13,41.13,0,0,1-3.071,13.641c-9.085,22.6-35.826,43.188-78.718,55.573-.7,2.008-1.479,4.1-2.359,6.29-1.758,4.372-3.9,9.112-6.528,14.245C149.929,180.974,160.313,278.14,0,250.138v.257c150.627,28.11,129.856-43.569,238.173-127.388" fill="#eec9af"/>
    <path id="Path_5916" data-name="Path 5916" d="M49.508,147.645c1.151-5.8-1.728-20.031-.373-25.829,2.233-9.569,11.339-18.253,20.19-26.921C79.573,84.86,92.125,83.284,99.772,72.7c5.62-7.772,7.913-16.3,4.526-24.289h0c-1.68-3.966-4.76-7.8-9.521-11.348-10.41-7.755-26.645-13.381-43.7-17.776C35.032,15.156,17.864,10.8,0,6.913v7.41q13.152,2.907,25.977,6.129c17.467,4.359,35.015,8.756,48.572,15.714,16.478,8.46,22.41,19.5,17.455,30.675h0c-6.582,14.84-29.611,28.448-40.094,42.4-5.875,7.819-8.472,16.064-10.26,24.285-1.674,7.69-.962,16.163-6.326,23.494-3.132,4.28-8.153,8.55-16.574,10.712A63.3,63.3,0,0,1,0,169.194v4.513a117.352,117.352,0,0,0,13.6-1.184c25.124-3.7,33.662-13.529,35.913-24.878" fill="#eec9af"/>
    <path id="Path_5917" data-name="Path 5917" d="M13.41,81.8q-.126-1.788-.346-3.581C11.658,66.357,11.325,51.11,0,39.649v10.2C8.45,59.487,9.808,70.22,10.3,80.7c.186,3.931.349,6.835.283,10.776v0c-.207,12.2-1.388,20.134-7.661,31.99C1.669,125.837.793,126.833,0,127.075v10.946c8.77-6.468,15.8-21.93,13.41-56.223" fill="#eec9af"/>
    <path id="Path_5918" data-name="Path 5918" d="M70.516,219.013c19.114-4.713,29.169-14.965,33.662-24.932S109,173.737,115.373,164c2.5-3.824,5.96-7.636,5.7-11.634-.222-3.369-4.168-6.95-10.44-8.227l2.332.289c-6.251-1.894-7.231-6.246-4.234-9.459s8.908-5.564,14.528-7.861C154.61,114.3,184.23,97.92,186.28,78.353c1.016-9.675-5.364-18.889-9.088-28.244l-.006,0c-3.309-8.319-9.857-16.315-18.753-23.65C146.036,16.24,129.134,7.268,109.464,0H87.27c16.969,4.725,32.505,10.477,45.236,17.595a105.977,105.977,0,0,1,11.826,7.616c9.3,6.964,15.57,14.715,21.788,22.406,5.157,6.382,10.347,12.818,12.64,19.565,7.721,22.7-22.522,46.986-68.25,54.811l.007,0c-6.344,1.086-13.2,1.964-17.948,4.228-11.612,5.535-3.4,15.131,8.292,20.629,2.293,1.08,4.811,2.191,5.62,3.673a3.78,3.78,0,0,1,.138,2.647,153.3,153.3,0,0,1-14.1,40.365c-4.162,8.179-10.332,17.06-25.7,21.3-20.464,5.65-45.934.4-66.819-5.151v6.081c23.182,5.221,48.591,8.663,70.516,3.252" fill="#eec9af"/>
  </g>
</svg>
