<svg id="testimony_right" xmlns="http://www.w3.org/2000/svg" xmlns:xlink="http://www.w3.org/1999/xlink" width="411.526" height="218.376" viewBox="0 0 411.526 218.376">
  <defs>
    <clipPath id="clip-path">
      <rect id="Rectangle_262" data-name="Rectangle 262" width="411.526" height="218.376" fill="none"/>
    </clipPath>
  </defs>
  <g id="Group_10425" data-name="Group 10425" clip-path="url(#clip-path)">
    <path id="Path_5919" data-name="Path 5919" d="M292.185,218.376h45.867a111.84,111.84,0,0,0-45.867,0" fill="#eec9af"/>
    <path id="Path_5920" data-name="Path 5920" d="M356.322,216.339a98.49,98.49,0,0,0-39.787-8.032c-9.178.1-17.92,1.519-27.072,1.742-4.532.112-9.163-.071-13.584.337-9.809.9-16.986,4.516-23.557,7.99h39.863a111.822,111.822,0,0,1,45.867,0H360.3a32.918,32.918,0,0,0-3.98-2.037" fill="#eec9af"/>
    <path id="Path_5921" data-name="Path 5921" d="M45.841,165.427a276.466,276.466,0,0,1,26.672-18.18c9.121-5.618,17.289-11.619,26.122-17.445,16.259-10.724,32.785-21.288,49.945-31.422,29.254-17.277,60.506-33.623,95.463-45.964a63.847,63.847,0,0,1,14.371-3.24c57.182-2.46,100.863-16.868,153.112-27.771V.771C396.055-.873,380.967-.05,370.4,4.8c-38.173,19.59-70.829,39.445-127.26,43.488q-7.36,2.962-14.687,6.063A1100.179,1100.179,0,0,0,116.527,109.6q-26.417,14.9-51.222,30.908c-13.106,8.462-26.026,17.268-35.438,27.63C20,179,13.855,190.971,7.844,202.863Q3.92,210.619,0,218.376H13.446c.041-19.11,13.993-38.373,32.395-52.949" fill="#eec9af"/>
    <path id="Path_5922" data-name="Path 5922" d="M403.617,166.762c-34.994,3.279-69.542,3.082-102.706,9.5-31.42,6.084-60.68,14.642-94.345,18.24-10.891,1.163-22.371,1.771-33.566.585s-22.119-4.39-27.619-9.237c-5.226-4.605-5.013-10.011-3.558-15.009,10.149-34.869,75.7-58.365,136.368-73.568,36.03-9.028,84.658-21.515,133.334-34.017v-1.11c-4.85,1.437-8.791,2.568-11.528,3.271v0c-40.608,10.437-57.233,7.715-97.84,18.151-61.41,15.785-125.583,21.621-157.685,51.037-8.9,8.157-8.857,30.937-7.456,40.369s9.094,15.61,26.353,20.822c24.89,7.518,53.7,3.442,79.673-1.583,34.065-6.59,68.091-16.9,103.977-21.242,21.792-2.637,43.547-2.317,64.507-3.587v-3.511c-2.569.327-5.187.63-7.908.885" fill="#eec9af"/>
    <path id="Path_5923" data-name="Path 5923" d="M343.435,116.368c-15.615,1.105-33.647.982-43.874,6.473-5.31,2.851-7.468,6.783-12.34,9.807-6.188,3.843-14.792,5.676-22.2,8.321-6.086,2.174-16.61,6.891-14.6,12.233,6.062-3.444,16.175-4.657,23.691-6.317a252.431,252.431,0,0,1,26.426-4.318,322.87,322.87,0,0,1,41.4-1.8c9.322.175,18.257,1.494,27.39.645a164.063,164.063,0,0,0,27.15-4.948c5.015-1.338,10.053-2.777,15.048-4.3v-4.5c-11.682,2.01-23.908,3.814-32.586,5.972a141.867,141.867,0,0,1-41.638,4.413,226.306,226.306,0,0,0-25.8,1c-16.661,1.311-32.713,3.72-48.469,6.346,7.135-5.928,22.93-9.351,35.829-11.5a14.848,14.848,0,0,0,4.168-2.228c5.833-5.231,17.32-7.772,29.118-9.288,9.758-1.253,19.925-1.839,29.755-2.982,18.495-2.149,35.739-6.369,49.623-12.305V98.34c-17.625,9.412-41.351,16.136-68.088,18.028Z" fill="#eec9af"/>
  </g>
</svg>
